<?xml version="1.0" encoding="UTF-8" standalone="no"?>
<svg width="128" height="128" viewBox="0 0 128 128" xmlns="http://www.w3.org/2000/svg">
  <!-- Background circle -->
  <circle cx="64" cy="64" r="60" fill="#4285F4"/>
  
  <!-- Link icon -->
  <g transform="translate(32, 32)" fill="white">
    <!-- First chain link -->
    <path d="M24,36 L36,36 C42.6,36 48,30.6 48,24 C48,17.4 42.6,12 36,12 L24,12 M24,36 C17.4,36 12,30.6 12,24 C12,17.4 17.4,12 24,12" 
          stroke="white" stroke-width="8" fill="none" stroke-linecap="round"/>
    
    <!-- Second chain link -->
    <path d="M40,36 L28,36 C21.4,36 16,41.4 16,48 C16,54.6 21.4,60 28,60 L40,60 M40,36 C46.6,36 52,41.4 52,48 C52,54.6 46.6,60 40,60" 
          stroke="white" stroke-width="8" fill="none" stroke-linecap="round"/>
  </g>
  
  <!-- Multiple small arrows indicating "opening" -->
  <g fill="white">
    <path d="M100,28 L108,20 L100,12 L100,28 Z" />
    <path d="M88,40 L96,32 L88,24 L88,40 Z" />
    <path d="M100,52 L108,44 L100,36 L100,52 Z" />
  </g>
</svg>
